<?xml version="1.0"?>
<svg xmlns="http://www.w3.org/2000/svg" xmlns:xlink="http://www.w3.org/1999/xlink" xmlns:svgjs="http://svgjs.com/svgjs" version="1.1" width="512px" height="512px" x="0" y="0" viewBox="0 0 24 24" style="enable-background:new 0 0 512 512" xml:space="preserve"><g><path d="m22.554.923a3.978 3.978 0 0 0 -3.291-.853l-9.184 1.722a5 5 0 0 0 -4.079 4.914v9.85a3.959 3.959 0 0 0 -2-.556 4 4 0 1 0 4 4v-9.124a2 2 0 0 1 1.632-1.966l11.183-2.1a1 1 0 0 1 1.185.99v5.76a3.959 3.959 0 0 0 -2-.56 4 4 0 1 0 4 4v-13a3.987 3.987 0 0 0 -1.446-3.077z" fill="#cac4d0" data-original="#000000"/></g></svg>
