<?xml version="1.0" encoding="UTF-8"?>
<svg id="Layer_2" data-name="Layer 2" xmlns="http://www.w3.org/2000/svg" xmlns:xlink="http://www.w3.org/1999/xlink" viewBox="0 0 10000 6674.15">
  <defs>
    <style>
      .cls-1 {
        fill: url(#linear-gradient);
      }
    </style>
    <linearGradient id="linear-gradient" x1="1510.56" y1="235.5" x2="7818.8" y2="6543.74" gradientUnits="userSpaceOnUse">
      <stop offset="0" stop-color="#cff"/>
      <stop offset="1" stop-color="#ccf"/>
    </linearGradient>
  </defs>
  <g id="Flogo">
    <path class="cls-1" d="m8898.55,3496.6c-239.57,836.87-811.63,1313.27-1588.42,1313.27-985.53,0-1634.83-845.13-1634.83-1835.28,0-1039.85,664.75-1843.59,1634.83-1843.59,780.68,0,1352.69,484.73,1584.53,1292.59l1093.77-381.15C9617.41,720.86,8535.25,0,7310.13,0c-923.44,0-1721.98,436.1-2232.23,1125.05C4571.49,435.75,3773.54,0,2833.33,0,1201.58,0,.06,1306.22.06,2973.23c0,754.54,275.06,1451.03,724.5,1981.77L0,5936.01l999.36,738.14,715.92-970.51c340.33,155.74,718.55,242.78,1118.06,242.78,942.65,0,1742.29-436.64,2248.5-1128.68,520.12,695.81,1330.23,1127.3,2228.3,1127.3,1267.65,0,2357.53-836.85,2689.87-2083.86l-1101.45-364.59Zm-6065.22,1305.32c-999.97,0-1643.39-800.31-1643.39-1828.69s643.43-1832.86,1643.39-1832.86,1639.49,808.6,1639.49,1832.86-643.39,1828.69-1639.49,1828.69Z"/>
  </g>
</svg>